<svg id="Grupo_23" data-name="Grupo 23" xmlns="http://www.w3.org/2000/svg" width="22" height="22" viewBox="0 0 22 22">
  <path id="Caminho_18" data-name="Caminho 18" d="M19.643,0H2.357A2.357,2.357,0,0,0,0,2.359V14.931a2.357,2.357,0,0,0,2.357,2.357H5.146L4.719,21.13a.786.786,0,0,0,1.307.67l5.014-4.512h8.6A2.357,2.357,0,0,0,22,14.931V2.359A2.357,2.357,0,0,0,19.643,0Zm.786,14.929a.786.786,0,0,1-.786.786h-8.9a.786.786,0,0,0-.526.2l-3.7,3.334.3-2.663a.786.786,0,0,0-.781-.873H2.357a.786.786,0,0,1-.786-.786V2.359a.786.786,0,0,1,.786-.786H19.643a.786.786,0,0,1,.786.786V14.931Z" transform="translate(0 -0.002)" fill="rgba(0,71,97,0.59)"/>
</svg>
